<svg preserveAspectRatio="none" overflow="visible" style="display: block;" width="108.281" height="85.9988" viewBox="0 0 108.281 85.9988" fill="none" xmlns="http://www.w3.org/2000/svg">
<path id="path" d="M71.1441 82.847C62.9051 84.6895 54.5049 69.0273 54.5049 69.0273C54.5049 69.0273 49.7618 78.2397 44.5973 77.8549C39.6709 77.4878 36.0521 68.5142 36.0521 68.5142C36.0521 68.5142 13.4065 84.4622 5.51903 74.2531C-5.64625 59.8016 23.9132 45.2292 23.9132 45.2292C23.9132 45.2292 4.52883 38.5365 5.51904 29.9892C7.08163 16.5014 36.0768 27.1966 36.0768 27.1966C36.0768 27.1966 32.5746 9.87207 40.0454 6.0307C48.748 1.55598 59.2941 22.085 59.2941 22.085C59.2941 22.085 89.6127 -6.10258 102.164 6.0307C114.306 17.7682 87.0797 44.2939 87.0797 44.2939C87.0797 44.2939 104.728 51.8471 102.164 59.9443C99.4456 68.529 79.181 61.3846 79.181 61.3846C79.181 61.3846 79.8678 80.8961 71.1441 82.847Z" stroke="#AAF150" stroke-width="6"/>
</svg>
